# xmcd
#
# Track frame offsets:
#	150
#	18880
#	33463
#	52882
#	71885
#	90854
#	104310
#	120082
#	133664
#	152263
#
# Disc length: 2263 seconds
# Revision: 0
# Processed by: cddbd v1.5.2PL0 Copyright (c) Steve Scherf et al.
# Submitted via: dBpowerAMP V12.0
#
DISCID=6b08d50a
DTITLE=Hour of Penance - Paradogma
DYEAR=2010
DGENRE=Metal
TTITLE0=Paradogma
TTITLE1=Thousands of Christs
TTITLE2=The Woeful Eucharisty
TTITLE3=Malevolence of the Righteous
TTITLE4=Caged Into Falsehood
TTITLE5=Incestuous Dynasty of Worms
TTITLE6=Adversary of Bigotry
TTITLE7=Incontrovertible Doctrines
TTITLE8=Spiritual Ravishment
TTITLE9=Apotheosis
EXTD=
EXTT0=
EXTT1=
EXTT2=
EXTT3=
EXTT4=
EXTT5=
EXTT6=
EXTT7=
EXTT8=
EXTT9=
PLAYORDER=
